# xmcd
#
# Track frame offsets: 
#        150
#        15915
#        34404
#        54488
#        70406
#        90398
#
# Disc length: 1423 seconds
#
# Revision: 0
# Processed by: cddbd v1.5.2PL0 Copyright (c) Steve Scherf et al.
# Submitted via: ExactAudioCopy v0.99pb5
#
DISCID=43058d06
DTITLE=Tony Osanah - Blues and Cia
DYEAR=2008
DGENRE=Blues
TTITLE0=Dust my Broom
TTITLE1=Sitting in The Top of The World
TTITLE2=Nobody Knows
TTITLE3=Crossroad
TTITLE4=Same Old Blues
TTITLE5=Trouble`ll Soom be Over
EXTD=
EXTT0=
EXTT1=
EXTT2=
EXTT3=
EXTT4=
EXTT5=
PLAYORDER=
